<mxfile host="app.diagrams.net" modified="2022-04-13T00:38:43.573Z" agent="5.0 (Windows NT 10.0; Win64; x64) AppleWebKit/537.36 (KHTML, like Gecko) Chrome/100.0.4896.75 Safari/537.36 Edg/100.0.1185.39" etag="-WzL-ogA-roHUjrzn29H" version="15.9.6" type="github">
  <diagram id="k1MyGi4MArmq5rG3Gd4M" name="第 1 页">
    <mxGraphModel dx="1550" dy="867" grid="1" gridSize="10" guides="1" tooltips="1" connect="1" arrows="1" fold="1" page="1" pageScale="1" pageWidth="827" pageHeight="1169" math="0" shadow="0">
      <root>
        <mxCell id="0" />
        <mxCell id="1" parent="0" />
        <mxCell id="WGUut_tcVMh0xcZjMTDo-3" style="edgeStyle=orthogonalEdgeStyle;rounded=0;orthogonalLoop=1;jettySize=auto;html=1;entryX=0;entryY=0.5;entryDx=0;entryDy=0;" edge="1" parent="1" source="WGUut_tcVMh0xcZjMTDo-1" target="WGUut_tcVMh0xcZjMTDo-2">
          <mxGeometry relative="1" as="geometry" />
        </mxCell>
        <mxCell id="WGUut_tcVMh0xcZjMTDo-1" value="" style="rounded=0;whiteSpace=wrap;html=1;" vertex="1" parent="1">
          <mxGeometry x="294" y="190" width="86" height="60" as="geometry" />
        </mxCell>
        <mxCell id="WGUut_tcVMh0xcZjMTDo-2" value="" style="rounded=1;whiteSpace=wrap;html=1;" vertex="1" parent="1">
          <mxGeometry x="460" y="190" width="120" height="60" as="geometry" />
        </mxCell>
      </root>
    </mxGraphModel>
  </diagram>
</mxfile>
